<svg width="18" height="14" viewBox="0 0 18 14" fill="none" xmlns="http://www.w3.org/2000/svg">
<path d="M6.48 10.5L9 8.6625L11.475 10.5L10.53 7.525L13.05 5.6H9.99L9 2.625L8.01 5.6H4.95L7.425 7.525L6.48 10.5ZM1.8 14C1.305 14 0.88125 13.8286 0.52875 13.4859C0.17625 13.1432 0 12.7312 0 12.25V9.29688C0 9.13646 0.0525 8.99792 0.1575 8.88125C0.2625 8.76458 0.3975 8.69167 0.5625 8.6625C0.9225 8.54583 1.21875 8.33437 1.45125 8.02812C1.68375 7.72187 1.8 7.37917 1.8 7C1.8 6.62083 1.68375 6.27812 1.45125 5.97187C1.21875 5.66562 0.9225 5.45417 0.5625 5.3375C0.3975 5.30833 0.2625 5.23542 0.1575 5.11875C0.0525 5.00208 0 4.86354 0 4.70312V1.75C0 1.26875 0.17625 0.856771 0.52875 0.514062C0.88125 0.171354 1.305 0 1.8 0H16.2C16.695 0 17.1187 0.171354 17.4713 0.514062C17.8238 0.856771 18 1.26875 18 1.75V4.70312C18 4.86354 17.9475 5.00208 17.8425 5.11875C17.7375 5.23542 17.6025 5.30833 17.4375 5.3375C17.0775 5.45417 16.7812 5.66562 16.5487 5.97187C16.3162 6.27812 16.2 6.62083 16.2 7C16.2 7.37917 16.3162 7.72187 16.5487 8.02812C16.7812 8.33437 17.0775 8.54583 17.4375 8.6625C17.6025 8.69167 17.7375 8.76458 17.8425 8.88125C17.9475 8.99792 18 9.13646 18 9.29688V12.25C18 12.7312 17.8238 13.1432 17.4713 13.4859C17.1187 13.8286 16.695 14 16.2 14H1.8ZM1.8 12.25H16.2V10.0188C15.645 9.69792 15.2063 9.27135 14.8838 8.73906C14.5613 8.20677 14.4 7.62708 14.4 7C14.4 6.37292 14.5613 5.79323 14.8838 5.26094C15.2063 4.72865 15.645 4.30208 16.2 3.98125V1.75H1.8V3.98125C2.355 4.30208 2.79375 4.72865 3.11625 5.26094C3.43875 5.79323 3.6 6.37292 3.6 7C3.6 7.62708 3.43875 8.20677 3.11625 8.73906C2.79375 9.27135 2.355 9.69792 1.8 10.0188V12.25Z" fill="#B1B1B2" fill-opacity="0.5"/>
</svg>
