<svg width="26" height="26" viewBox="0 0 26 26" fill="none" xmlns="http://www.w3.org/2000/svg">
<mask id="mask0_75_2078" style="mask-type:luminance" maskUnits="userSpaceOnUse" x="0" y="0" width="26" height="26">
<path d="M24.7606 10.7188H13.0137V15.7146H19.7753C19.145 18.8884 16.5091 20.7103 13.0137 20.7103C8.88793 20.7103 5.56441 17.3015 5.56441 13.0697C5.56441 8.83803 8.88793 5.42914 13.0137 5.42914C14.79 5.42914 16.3945 6.07565 17.6551 7.13358L21.3225 3.37206C19.0877 1.37375 16.2226 0.139496 13.0137 0.139496C6.02283 0.139496 0.407227 5.89933 0.407227 13.0697C0.407227 20.2402 6.02283 26 13.0137 26C19.3169 26 25.0471 21.2981 25.0471 13.0697C25.0471 12.3057 24.9325 11.4828 24.7606 10.7188Z" fill="white"/>
</mask>
<g mask="url(#mask0_75_2078)">
<path d="M-0.73877 20.7103V5.42914L9.00258 13.0697L-0.73877 20.7103Z" fill="#FBBC05"/>
</g>
<mask id="mask1_75_2078" style="mask-type:luminance" maskUnits="userSpaceOnUse" x="0" y="0" width="26" height="26">
<path d="M24.7606 10.7188H13.0137V15.7146H19.7753C19.145 18.8884 16.5091 20.7103 13.0137 20.7103C8.88793 20.7103 5.56441 17.3015 5.56441 13.0697C5.56441 8.83803 8.88793 5.42914 13.0137 5.42914C14.79 5.42914 16.3945 6.07565 17.6551 7.13358L21.3225 3.37206C19.0877 1.37375 16.2226 0.139496 13.0137 0.139496C6.02283 0.139496 0.407227 5.89933 0.407227 13.0697C0.407227 20.2402 6.02283 26 13.0137 26C19.3169 26 25.0471 21.2981 25.0471 13.0697C25.0471 12.3057 24.9325 11.4828 24.7606 10.7188Z" fill="white"/>
</mask>
<g mask="url(#mask1_75_2078)">
<path d="M-0.73877 5.42914L9.00258 13.0697L13.0137 9.48454L26.7662 7.19236V-1.03598H-0.73877V5.42914Z" fill="#EA4335"/>
</g>
<mask id="mask2_75_2078" style="mask-type:luminance" maskUnits="userSpaceOnUse" x="0" y="0" width="26" height="26">
<path d="M24.7606 10.7188H13.0137V15.7146H19.7753C19.145 18.8884 16.5091 20.7103 13.0137 20.7103C8.88793 20.7103 5.56441 17.3015 5.56441 13.0697C5.56441 8.83803 8.88793 5.42914 13.0137 5.42914C14.79 5.42914 16.3945 6.07565 17.6551 7.13358L21.3225 3.37206C19.0877 1.37375 16.2226 0.139496 13.0137 0.139496C6.02283 0.139496 0.407227 5.89933 0.407227 13.0697C0.407227 20.2402 6.02283 26 13.0137 26C19.3169 26 25.0471 21.2981 25.0471 13.0697C25.0471 12.3057 24.9325 11.4828 24.7606 10.7188Z" fill="white"/>
</mask>
<g mask="url(#mask2_75_2078)">
<path d="M-0.73877 20.7103L16.4518 7.19236L20.9787 7.7801L26.7662 -1.03598V27.1755H-0.73877V20.7103Z" fill="#34A853"/>
</g>
<mask id="mask3_75_2078" style="mask-type:luminance" maskUnits="userSpaceOnUse" x="0" y="0" width="26" height="26">
<path d="M24.7606 10.7188H13.0137V15.7146H19.7753C19.145 18.8884 16.5091 20.7103 13.0137 20.7103C8.88793 20.7103 5.56441 17.3015 5.56441 13.0697C5.56441 8.83803 8.88793 5.42914 13.0137 5.42914C14.79 5.42914 16.3945 6.07565 17.6551 7.13358L21.3225 3.37206C19.0877 1.37375 16.2226 0.139496 13.0137 0.139496C6.02283 0.139496 0.407227 5.89933 0.407227 13.0697C0.407227 20.2402 6.02283 26 13.0137 26C19.3169 26 25.0471 21.2981 25.0471 13.0697C25.0471 12.3057 24.9325 11.4828 24.7606 10.7188Z" fill="white"/>
</mask>
<g mask="url(#mask3_75_2078)">
<path d="M26.7662 27.1755L9.00253 13.0697L6.71045 11.3065L26.7662 5.42914V27.1755Z" fill="#4285F4"/>
</g>
</svg>
