<svg width="859" height="742" viewBox="0 0 859 742" fill="none" xmlns="http://www.w3.org/2000/svg"><g filter="url(#a)"><path d="m673.284 361.362-.013.012c11.626 11.127 18.866 26.8 18.866 44.162-.001 33.756-27.366 61.122-61.122 61.122-16.31 0-31.127-6.388-42.087-16.798-10.871 9.945-25.348 16.013-41.243 16.013-33.757 0-61.123-27.366-61.123-61.122.001-16.961 6.909-32.309 18.065-43.382l-.007-.007 84.333-84.333z" fill="#FCC304" fill-opacity=".49"/></g><g filter="url(#b)"><path d="M631.015 72c33.756 0 61.122 27.365 61.122 61.122 0 17.362-7.241 33.033-18.866 44.16l.013.013-84.331 84.332-84.333-84.332.007-.008c-11.156-11.073-18.064-26.419-18.065-43.38 0-33.757 27.366-61.123 61.123-61.123 15.895 0 30.372 6.068 41.243 16.013C599.888 78.387 614.705 72 631.015 72" fill="#FCC304" fill-opacity=".49"/></g><g filter="url(#c)"><path d="M725.521 166.541c33.756.001 61.122 27.366 61.123 61.122 0 16.304-6.385 31.116-16.79 42.076 9.949 10.872 16.019 25.351 16.019 41.249 0 33.757-27.366 61.122-61.122 61.122-16.961 0-32.307-6.909-43.38-18.065l-.002.003-84.333-84.331 84.333-84.332.006.006c11.126-11.616 26.792-18.85 44.146-18.85" fill="#FCC304" fill-opacity=".49"/></g><g filter="url(#d)"><path d="M453.122 166.541c17.356 0 33.023 7.234 44.149 18.852l.009-.008 84.333 84.332-84.333 84.331-.006-.006c-11.073 11.157-26.42 18.068-43.381 18.068-33.757 0-61.122-27.365-61.122-61.122 0-15.897 6.068-30.378 16.016-41.249C398.384 258.78 392 243.967 392 227.663c0-33.756 27.365-61.121 61.122-61.122" fill="#FCC304" fill-opacity=".49"/></g><g filter="url(#e)"><path fill-rule="evenodd" clip-rule="evenodd" d="M110.379 688.173q-23.256 0-39.818-16.561Q54.001 655.05 54 631.794v-84.569h563.794v84.569q0 23.256-16.561 39.818-16.562 16.561-39.818 16.561zm0-84.569v28.19h451.036v-28.19zm225.518-126.853q-25.371 0-40.17 14.094-14.8 14.095-54.266 14.095t-53.56-14.095-39.466-14.094q-25.37 0-40.17 14.094Q93.465 504.94 54 504.94v-56.379q25.371 0 40.17-14.095t54.265-14.095 53.561 14.095 39.465 14.095 40.171-14.095 54.265-14.095 54.265 14.095 40.17 14.095q14.649 0 25.537-4.698s-.166 8.1 6.882 18.793c7.047 10.693 22.551 28.189 22.551 28.189q-15.504 14.095-54.97 14.095t-54.265-14.095-40.17-14.094M54 378.087v-28.19q0-81.045 76.465-125.092 76.464-44.046 205.432-44.046 19.08 0 37.011.964c-2.94 4.377-8.821 15.95-8.821 27.225s1.606 23.966 2.409 28.901q-14.835-.711-30.599-.711-87.388 0-146.234 21.847t-75.055 62.722h257.304l6.27 28.19 14.094 28.19z" fill="#F4BD25"/><mask id="f" fill="#fff"><path d="m673.561 357.362-.013.012c11.625 11.127 18.865 26.8 18.865 44.162 0 33.756-27.366 61.122-61.122 61.122-16.31 0-31.127-6.388-42.087-16.798-10.871 9.945-25.348 16.013-41.243 16.013-33.757 0-61.122-27.366-61.122-61.122 0-16.961 6.908-32.309 18.064-43.382l-.007-.007 84.333-84.333z"/></mask><path d="m673.561 357.362 28.68 31.071 32.338-29.851-31.118-31.119zm-.013.012-28.681-31.071-33.055 30.513 32.498 31.105zm18.865 44.162h42.285zm-61.122 61.122v42.285zm-42.087-16.798 29.121-30.659-28.58-27.145-29.082 26.605zm-41.243 16.013v42.284zm-61.122-61.122h-42.285zm18.064-43.382 29.788 30.011 30.123-29.899-30.011-30.012zm-.007-.007-29.899-29.9-29.9 29.9 29.9 29.9zm84.333-84.333 29.901-29.899-29.9-29.901-29.9 29.9zm84.332 84.333-28.681-31.071-.013.012 28.681 31.071 28.681 31.071.012-.012zm-.013.012-29.238 30.547c3.638 3.482 5.819 8.259 5.819 13.615h84.569c0-29.369-12.299-55.937-31.912-74.709zm18.865 44.162h-42.284c-.001 10.403-8.435 18.837-18.838 18.838v84.569c57.109-.001 103.406-46.298 103.407-103.407zm-61.122 61.122v-42.284c-5.045 0-9.55-1.928-12.966-5.173l-29.121 30.659-29.12 30.659c18.503 17.576 43.633 28.424 71.207 28.424zm-42.087-16.798-28.541-31.199c-3.383 3.095-7.78 4.927-12.702 4.927v84.569c26.869 0 51.426-10.303 69.784-27.098zm-41.243 16.013v-42.285c-10.404 0-18.838-8.434-18.838-18.837h-84.569c0 57.109 46.297 103.406 103.407 103.406zm-61.122-61.122h42.284c0-5.239 2.083-9.911 5.568-13.371l-29.788-30.011-29.788-30.011c-18.827 18.687-30.561 44.709-30.561 73.393zm18.064-43.382 29.9-29.9-.007-.007-29.9 29.9-29.899 29.9.007.007zm-.007-.007 29.9 29.9 84.333-84.333-29.9-29.9-29.899-29.9-84.333 84.333zm84.333-84.333-29.9 29.9 84.332 84.333 29.9-29.9 29.9-29.899-84.331-84.333z" fill="#F4BD25" mask="url(#f)"/><mask id="g" fill="#fff"><path d="M631.291 68c33.756 0 61.122 27.365 61.122 61.122 0 17.362-7.24 33.033-18.865 44.16l.013.013-84.332 84.332-84.333-84.332.007-.008c-11.155-11.073-18.064-26.419-18.064-43.38 0-33.757 27.365-61.123 61.122-61.123 15.895 0 30.372 6.068 41.243 16.013C600.164 74.387 614.982 68 631.291 68"/></mask><path d="M631.291 68V25.716zm61.122 61.122h42.285zm-18.865 44.16-29.239-30.546-31.222 29.885 30.561 30.561zm.013.013 29.899 29.899 29.9-29.899-29.9-29.9zm-84.332 84.332-29.899 29.9 29.9 29.899 29.899-29.9zm-84.333-84.332-31.822-27.845-26.05 29.772 27.973 27.973zm.007-.008 31.823 27.845 26.147-29.883-28.181-27.972zm-18.064-43.38h-42.285zm61.122-61.123V26.5zm41.243 16.013-28.541 31.199 29.082 26.604 28.579-27.144zM631.291 68v42.285c10.403 0 18.837 8.434 18.838 18.837h84.569c-.001-57.11-46.298-103.406-103.407-103.407zm61.122 61.122h-42.284c0 5.354-2.18 10.13-5.82 13.614l29.239 30.546 29.238 30.547c19.611-18.771 31.912-45.336 31.912-74.707zm-18.865 44.16-29.9 29.9.013.013 29.9-29.9 29.899-29.9-.012-.012zm.013.013-29.9-29.9-84.331 84.332 29.899 29.9 29.9 29.899 84.331-84.332zm-84.332 84.332 29.9-29.9-84.333-84.332-29.9 29.9-29.899 29.9 84.333 84.332zm-84.333-84.332 31.823 27.844.007-.007-31.823-27.845-31.822-27.844-.007.007zm.007-.008 29.789-30.01c-3.487-3.462-5.569-8.134-5.569-13.37h-84.569c0 28.685 11.736 54.705 30.561 73.39zm-18.064-43.38h42.284c0-10.404 8.435-18.838 18.838-18.838V26.5c-57.111 0-103.407 46.298-103.407 103.407zm61.122-61.123v42.285c4.921 0 9.319 1.832 12.702 4.927l28.541-31.2 28.541-31.199C599.387 36.805 574.83 26.5 547.961 26.5zm41.243 16.013 29.12 30.659c3.415-3.243 7.92-5.171 12.967-5.171V25.716c-27.572 0-52.702 10.846-71.207 28.422z" fill="#F4BD25" mask="url(#g)"/><mask id="h" fill="#fff"><path d="M725.798 162.541c33.756.001 61.122 27.366 61.122 61.122 0 16.304-6.385 31.116-16.789 42.076 9.948 10.872 16.018 25.351 16.018 41.249 0 33.757-27.366 61.122-61.122 61.122-16.96 0-32.306-6.909-43.38-18.065l-.001.003-84.334-84.331 84.334-84.332.005.006c11.127-11.616 26.792-18.85 44.147-18.85"/></mask><path d="M725.798 162.541v-42.284zm61.122 61.122h42.284zm-16.789 42.076-30.666-29.113-27.135 28.582 26.605 29.076zm16.018 41.249h42.285zm-61.122 61.122v42.284zm-43.38-18.065 30.011-29.789-36.474-36.744-28.719 43.078zm-.001.003-29.9 29.9 36.472 36.471 28.61-42.916zm-84.334-84.331-29.899-29.9-29.9 29.9 29.9 29.9zm84.334-84.332 29.899-29.9-29.899-29.899-29.9 29.899zm.005.006-29.899 29.9 30.55 30.55 29.886-31.201zm44.147-18.85v42.285c10.403 0 18.837 8.434 18.837 18.838l42.285-.001h42.284c0-57.11-46.297-103.406-103.406-103.406zm61.122 61.122h-42.285c0 5.041-1.925 9.544-5.17 12.963l30.666 29.113 30.666 29.113c17.563-18.5 28.407-43.621 28.407-71.189zm-16.789 42.076-31.196 28.545c3.097 3.384 4.93 7.782 4.93 12.704h84.569c0-26.874-10.308-51.435-27.108-69.794zm16.018 41.249-42.284-.001c0 10.405-8.434 18.838-18.838 18.838v84.569c57.109 0 103.407-46.295 103.407-103.406zm-61.122 61.122v-42.285c-5.236 0-9.908-2.081-13.369-5.569l-30.011 29.789-30.01 29.789c18.685 18.824 44.705 30.56 73.39 30.56zm-43.38-18.065-35.182-23.455-.002.003 35.183 23.455 35.182 23.455.002-.002zm-.001.003 29.899-29.9-84.333-84.331-29.9 29.9-29.899 29.9 84.333 84.331zm-84.334-84.331 29.9 29.9 84.333-84.332-29.899-29.9-29.9-29.9-84.333 84.332zm84.334-84.332-29.9 29.9.006.006 29.899-29.9 29.9-29.9-.006-.006zm.005.006 30.537 29.249c3.482-3.636 8.257-5.814 13.61-5.814v-84.569c-29.356 0-55.913 12.288-74.683 31.885z" fill="#F4BD25" mask="url(#h)"/><mask id="i" fill="#fff"><path d="M453.398 162.541c17.357 0 33.024 7.234 44.15 18.852l.009-.008 84.333 84.332-84.333 84.331-.006-.006c-11.074 11.157-26.42 18.068-43.382 18.068-33.757 0-61.122-27.365-61.122-61.122 0-15.897 6.069-30.378 16.016-41.249-10.403-10.959-16.787-25.772-16.787-42.076.001-33.756 27.366-61.121 61.122-61.122"/></mask><path d="M453.398 162.541v-42.284zm44.15 18.852-30.539 29.247 28.18 29.424 30.451-27.067zm.009-.008 29.899-29.9-28.192-28.192-29.8 26.488zm84.333 84.332 29.899 29.9 29.901-29.9-29.901-29.9zm-84.333 84.331-29.9 29.9 29.899 29.899 29.9-29.899zm-.006-.006 29.899-29.899-30.012-30.013-29.899 30.125zm-43.382 18.068v42.284zm-61.122-61.122h-42.285zm16.016-41.249 31.197 28.544 26.603-29.075-27.133-28.582zm-16.787-42.076h-42.284zm61.122-61.122v42.285c5.356 0 10.13 2.179 13.611 5.814l30.539-29.247 30.538-29.247c-18.771-19.6-45.33-31.889-74.688-31.889zm44.15 18.852 28.092 31.604.009-.008-28.092-31.604-28.093-31.604-.008.008zm.009-.008-29.9 29.9 84.333 84.332 29.9-29.9 29.899-29.9-84.333-84.332zm84.333 84.332-29.9-29.9-84.333 84.331 29.9 29.9 29.899 29.9 84.333-84.331zm-84.333 84.331 29.899-29.899-.006-.006-29.899 29.899-29.9 29.9.006.006zm-.006-.006-30.012-29.787c-3.463 3.489-8.135 5.57-13.37 5.57v84.569c28.688 0 54.709-11.739 73.394-30.564zm-43.382 18.068v-42.285c-10.404 0-18.837-8.433-18.838-18.838l-42.284.001h-42.285c.001 57.111 46.297 103.406 103.407 103.406zm-61.122-61.122h42.284c0-4.924 1.834-9.323 4.929-12.705l-31.197-28.544-31.196-28.545c-16.8 18.361-27.105 42.923-27.105 69.794zm16.016-41.249 30.667-29.113c-3.243-3.416-5.169-7.92-5.169-12.963h-84.569c0 27.564 10.841 52.686 28.405 71.188zm-16.787-42.076 42.285.001c0-10.404 8.434-18.838 18.838-18.838l-.001-42.285v-42.284c-57.109 0-103.406 46.296-103.406 103.406z" fill="#F4BD25" mask="url(#i)"/></g><defs><filter id="a" x="414.662" y="205.129" width="349.374" height="333.429" filterUnits="userSpaceOnUse" color-interpolation-filters="sRGB"><feFlood flood-opacity="0" result="BackgroundImageFix"/><feBlend in="SourceGraphic" in2="BackgroundImageFix" result="shape"/><feGaussianBlur stdDeviation="35.95" result="effect1_foregroundBlur_300_170"/></filter><filter id="b" x="414.662" y=".1" width="349.374" height="333.427" filterUnits="userSpaceOnUse" color-interpolation-filters="sRGB"><feFlood flood-opacity="0" result="BackgroundImageFix"/><feBlend in="SourceGraphic" in2="BackgroundImageFix" result="shape"/><feGaussianBlur stdDeviation="35.95" result="effect1_foregroundBlur_300_170"/></filter><filter id="c" x="525.136" y="94.641" width="333.407" height="349.368" filterUnits="userSpaceOnUse" color-interpolation-filters="sRGB"><feFlood flood-opacity="0" result="BackgroundImageFix"/><feBlend in="SourceGraphic" in2="BackgroundImageFix" result="shape"/><feGaussianBlur stdDeviation="35.95" result="effect1_foregroundBlur_300_170"/></filter><filter id="d" x="320.1" y="94.641" width="333.413" height="349.368" filterUnits="userSpaceOnUse" color-interpolation-filters="sRGB"><feFlood flood-opacity="0" result="BackgroundImageFix"/><feBlend in="SourceGraphic" in2="BackgroundImageFix" result="shape"/><feGaussianBlur stdDeviation="35.95" result="effect1_foregroundBlur_300_170"/></filter><filter id="e" x=".9" y="14.9" width="839.12" height="726.373" filterUnits="userSpaceOnUse" color-interpolation-filters="sRGB"><feFlood flood-opacity="0" result="BackgroundImageFix"/><feColorMatrix in="SourceAlpha" values="0 0 0 0 0 0 0 0 0 0 0 0 0 0 0 0 0 0 127 0" result="hardAlpha"/><feOffset/><feGaussianBlur stdDeviation="26.55"/><feComposite in2="hardAlpha" operator="out"/><feColorMatrix values="0 0 0 0 0.988235 0 0 0 0 0.764706 0 0 0 0 0.0156863 0 0 0 1 0"/><feBlend in2="BackgroundImageFix" result="effect1_dropShadow_300_170"/><feBlend in="SourceGraphic" in2="effect1_dropShadow_300_170" result="shape"/></filter></defs></svg>
