<svg width="180" height="153" viewBox="0 0 180 153" fill="none" xmlns="http://www.w3.org/2000/svg">
<path fill-rule="evenodd" clip-rule="evenodd" d="M13.8462 152.308C10.0385 152.308 6.77885 150.952 4.06731 148.24C1.35577 145.529 0 142.269 0 138.462V117.692H138.462V138.462C138.462 142.269 137.106 145.529 134.394 148.24C131.683 150.952 128.423 152.308 124.615 152.308H13.8462ZM13.8462 131.539V138.462H124.615V131.539H13.8462ZM69.2308 100.385C65.0769 100.385 61.7885 101.539 59.3654 103.846C56.9423 106.154 52.5 107.308 46.0385 107.308C39.5769 107.308 35.1923 106.154 32.8846 103.846C30.5769 101.539 27.3462 100.385 23.1923 100.385C19.0385 100.385 15.75 101.539 13.3269 103.846C10.9038 106.154 6.46154 107.308 0 107.308V93.4616C4.15385 93.4616 7.44231 92.3078 9.86538 90.0001C12.2885 87.6924 16.7308 86.5385 23.1923 86.5385C29.6538 86.5385 34.0385 87.6924 36.3462 90.0001C38.6538 92.3078 41.8846 93.4616 46.0385 93.4616C50.1923 93.4616 53.4808 92.3078 55.9038 90.0001C58.3269 87.6924 62.7692 86.5385 69.2308 86.5385C75.6923 86.5385 80.1346 87.6924 82.5577 90.0001C84.9808 92.3078 88.2692 93.4616 92.4231 93.4616C94.8213 93.4616 96.9118 93.077 98.6947 92.3078C98.6947 92.3078 98.6538 94.297 100.385 96.9232C102.115 99.5493 105.923 103.846 105.923 103.846C103.385 106.154 98.8846 107.308 92.4231 107.308C85.9615 107.308 81.5192 106.154 79.0962 103.846C76.6731 101.539 73.3846 100.385 69.2308 100.385ZM0 76.1539V69.2308C0 55.9616 6.25962 45.7212 18.7788 38.5097C31.2981 31.2982 48.1154 27.6924 69.2308 27.6924C72.3547 27.6924 75.3845 27.7713 78.3203 27.9292C77.5982 29.0041 76.1538 31.8462 76.1538 34.6155C76.1538 37.3847 76.5483 40.5011 76.7455 41.7131C74.3166 41.5967 71.8117 41.5385 69.2308 41.5385C54.9231 41.5385 42.9519 43.327 33.3173 46.9039C23.6827 50.4808 17.5385 55.6155 14.8846 62.3078H78.0757L79.6154 69.2308L83.0769 76.1539H0Z" fill="#878787"/>
<mask id="path-2-inside-1_299_2" fill="white">
<path d="M152.157 71.0645L152.153 71.0674C155.008 73.7999 156.786 77.6485 156.786 81.9121C156.786 90.2023 150.064 96.9238 141.774 96.9238C137.769 96.9237 134.131 95.3542 131.439 92.7979C128.769 95.24 125.215 96.7305 121.311 96.7305C113.021 96.7305 106.301 90.0099 106.301 81.7197C106.301 77.5544 107.996 73.7849 110.736 71.0654L110.735 71.0645L131.446 50.3525L152.157 71.0645Z"/>
</mask>
<path d="M152.157 71.0645L158.388 79.3721L167.966 72.1882L159.5 63.7216L152.157 71.0645ZM152.153 71.0674L145.922 62.7597L136.129 70.1044L144.972 78.5691L152.153 71.0674ZM156.786 81.9121L167.171 81.9121L167.171 81.9118L156.786 81.9121ZM141.774 96.9238L141.774 107.308H141.774V96.9238ZM131.439 92.7979L138.591 85.2682L131.572 78.6021L124.43 85.1355L131.439 92.7979ZM121.311 96.7305L121.311 107.115H121.311V96.7305ZM106.301 81.7197L95.9159 81.7196V81.7197H106.301ZM110.736 71.0654L118.052 78.4357L125.449 71.0927L118.079 63.7224L110.736 71.0654ZM110.735 71.0645L103.392 63.7216L96.0492 71.0646L103.392 78.4075L110.735 71.0645ZM131.446 50.3525L138.789 43.0097L131.446 35.6661L124.103 43.0097L131.446 50.3525ZM152.157 71.0645L145.926 62.7568L145.922 62.7597L152.153 71.0674L158.384 79.3751L158.388 79.3721L152.157 71.0645ZM152.153 71.0674L144.972 78.5691C145.866 79.4245 146.401 80.5976 146.401 81.9124L156.786 81.9121L167.171 81.9118C167.17 74.6995 164.15 68.1754 159.334 63.5657L152.153 71.0674ZM156.786 81.9121H146.401C146.401 84.467 144.329 86.5392 141.774 86.5392V96.9238V107.308C155.8 107.308 167.171 95.9375 167.171 81.9121H156.786ZM141.774 96.9238L141.774 86.5392C140.537 86.5392 139.431 86.0663 138.591 85.2682L131.439 92.7979L124.288 100.327C128.83 104.642 135.001 107.308 141.774 107.308L141.774 96.9238ZM131.439 92.7979L124.43 85.1355C123.598 85.8963 122.519 86.3459 121.311 86.3459V96.7305V107.115C127.911 107.115 133.941 104.584 138.448 100.46L131.439 92.7979ZM121.311 96.7305L121.311 86.3459C118.756 86.3459 116.685 84.2747 116.685 81.7197H106.301H95.9159C95.9159 95.7451 107.286 107.115 121.311 107.115L121.311 96.7305ZM106.301 81.7197L116.685 81.7198C116.685 80.4317 117.197 79.2842 118.052 78.4357L110.736 71.0654L103.42 63.6952C98.7958 68.2856 95.916 74.677 95.9159 81.7196L106.301 81.7197ZM110.736 71.0654L118.079 63.7224L118.078 63.7214L110.735 71.0645L103.392 78.4075L103.393 78.4085L110.736 71.0654ZM110.735 71.0645L118.078 78.4073L138.789 57.6954L131.446 50.3525L124.103 43.0097L103.392 63.7216L110.735 71.0645ZM131.446 50.3525L124.103 57.6954L144.814 78.4073L152.157 71.0645L159.5 63.7216L138.789 43.0097L131.446 50.3525Z" fill="#878787" mask="url(#path-2-inside-1_299_2)"/>
<mask id="path-4-inside-2_299_2" fill="white">
<path d="M141.774 0C150.064 0 156.786 6.72051 156.786 15.0107C156.786 19.2744 155.008 23.1228 152.153 25.8555L152.157 25.8594L131.446 46.5703L110.735 25.8594L110.737 25.8564C107.998 23.1371 106.301 19.3691 106.301 15.2041C106.301 6.91379 113.021 0.19239 121.311 0.192383C125.214 0.192383 128.769 1.68258 131.438 4.12402C134.13 1.5678 137.769 0.000111204 141.774 0Z"/>
</mask>
<path d="M141.774 0L141.774 -10.3846L141.774 -10.3846L141.774 0ZM156.786 15.0107L167.171 15.0107L167.171 15.0106L156.786 15.0107ZM152.153 25.8555L144.972 18.354L137.305 25.6935L144.81 33.1985L152.153 25.8555ZM152.157 25.8594L159.5 33.2024L166.843 25.8594L159.5 18.5163L152.157 25.8594ZM131.446 46.5703L124.103 53.9133L131.446 61.2564L138.789 53.9133L131.446 46.5703ZM110.735 25.8594L102.095 20.099L97.3722 27.1826L103.392 33.2024L110.735 25.8594ZM110.737 25.8564L119.378 31.6168L124.118 24.5066L118.053 18.4864L110.737 25.8564ZM106.301 15.2041L95.9159 15.2041L95.9159 15.2044L106.301 15.2041ZM121.311 0.192383L121.311 -10.1922L121.311 -10.1922L121.311 0.192383ZM131.438 4.12402L124.43 11.7872L131.572 18.3188L138.59 11.6538L131.438 4.12402ZM141.774 0V10.3846C144.33 10.3846 146.401 12.4566 146.401 15.0109L156.786 15.0107L167.171 15.0106C167.17 0.984389 155.799 -10.3846 141.774 -10.3846V0ZM156.786 15.0107H146.401C146.401 16.325 145.866 17.4981 144.972 18.354L152.153 25.8555L159.334 33.357C164.149 28.7476 167.171 22.2239 167.171 15.0107H156.786ZM152.153 25.8555L144.81 33.1985L144.814 33.2024L152.157 25.8594L159.5 18.5163L159.496 18.5124L152.153 25.8555ZM152.157 25.8594L144.814 18.5163L124.103 39.2273L131.446 46.5703L138.789 53.9133L159.5 33.2024L152.157 25.8594ZM131.446 46.5703L138.789 39.2273L118.078 18.5163L110.735 25.8594L103.392 33.2024L124.103 53.9133L131.446 46.5703ZM110.735 25.8594L119.376 31.6197L119.378 31.6168L110.737 25.8564L102.097 20.0961L102.095 20.099L110.735 25.8594ZM110.737 25.8564L118.053 18.4864C117.196 17.6356 116.685 16.4885 116.685 15.2038L106.301 15.2041L95.9159 15.2044C95.9161 22.2496 98.7993 28.6385 103.421 33.2264L110.737 25.8564ZM106.301 15.2041H116.685C116.685 12.6482 118.757 10.577 121.311 10.577L121.311 0.192383L121.311 -10.1922C107.285 -10.1922 95.9159 1.1794 95.9159 15.2041H106.301ZM121.311 0.192383V10.577C122.518 10.577 123.598 11.0265 124.43 11.7872L131.438 4.12402L138.446 -3.53919C133.939 -7.66131 127.91 -10.1922 121.311 -10.1922V0.192383ZM131.438 4.12402L138.59 11.6538C139.427 10.8587 140.533 10.3846 141.774 10.3846L141.774 0L141.774 -10.3846C135.005 -10.3844 128.833 -7.72305 124.287 -3.4058L131.438 4.12402Z" fill="#878787" mask="url(#path-4-inside-2_299_2)"/>
<mask id="path-6-inside-3_299_2" fill="white">
<path d="M164.99 23.2185C173.28 23.2187 180.001 29.939 180.001 38.2292C180.001 42.2344 178.431 45.8725 175.875 48.5642C178.317 51.234 179.807 54.7888 179.807 58.6921C179.807 66.9827 173.087 73.7039 164.797 73.7039C160.631 73.7038 156.862 72.0065 154.142 69.2664L154.141 69.2683L133.43 48.5574L154.141 27.8464L154.145 27.8503C156.878 24.996 160.727 23.2185 164.99 23.2185Z"/>
</mask>
<path d="M164.99 23.2185L164.99 12.8339H164.99V23.2185ZM180.001 38.2292L190.385 38.2292L190.385 38.2292L180.001 38.2292ZM175.875 48.5642L168.345 41.4128L161.679 48.4315L168.213 55.5736L175.875 48.5642ZM179.807 58.6921L190.192 58.6921L190.192 58.6919L179.807 58.6921ZM164.797 73.7039L164.797 84.0885H164.797V73.7039ZM154.142 69.2664L161.513 61.9511L151.323 51.6839L144.854 64.6222L154.142 69.2664ZM154.141 69.2683L146.799 76.6115L156.987 86.7989L163.43 73.9125L154.141 69.2683ZM133.43 48.5574L126.087 41.2142L118.743 48.5574L126.087 55.9006L133.43 48.5574ZM154.141 27.8464L161.485 20.5034L154.142 13.1605L146.799 20.5032L154.141 27.8464ZM154.145 27.8503L146.802 35.1934L154.307 42.6981L161.647 35.0317L154.145 27.8503ZM164.99 23.2185L164.99 33.6031C167.545 33.6032 169.616 35.6747 169.616 38.2293L180.001 38.2292L190.385 38.2292C190.385 24.2034 179.015 12.8343 164.99 12.8339L164.99 23.2185ZM180.001 38.2292H169.616C169.616 39.466 169.144 40.5721 168.345 41.4128L175.875 48.5642L183.405 55.7156C187.719 51.173 190.385 45.0028 190.385 38.2292H180.001ZM175.875 48.5642L168.213 55.5736C168.973 56.4049 169.423 57.4844 169.423 58.6924L179.807 58.6921L190.192 58.6919C190.192 52.0931 187.661 46.063 183.537 41.5549L175.875 48.5642ZM179.807 58.6921H169.423C169.423 61.2481 167.351 63.3192 164.797 63.3192V73.7039V84.0885C178.823 84.0885 190.192 72.7173 190.192 58.6921H179.807ZM164.797 73.7039L164.797 63.3192C163.511 63.3192 162.364 62.808 161.513 61.9511L154.142 69.2664L146.772 76.5816C151.36 81.205 157.751 84.0884 164.797 84.0885L164.797 73.7039ZM154.142 69.2664L144.854 64.6222L144.853 64.6242L154.141 69.2683L163.43 73.9125L163.431 73.9105L154.142 69.2664ZM154.141 69.2683L161.484 61.9251L140.772 41.2142L133.43 48.5574L126.087 55.9006L146.799 76.6115L154.141 69.2683ZM133.43 48.5574L140.772 55.9006L161.484 35.1896L154.141 27.8464L146.799 20.5032L126.087 41.2142L133.43 48.5574ZM154.141 27.8464L146.798 35.1895L146.802 35.1934L154.145 27.8503L161.488 20.5073L161.485 20.5034L154.141 27.8464ZM154.145 27.8503L161.647 35.0317C162.502 34.1386 163.675 33.6031 164.99 33.6031V23.2185V12.8339C157.779 12.8339 151.254 15.8533 146.644 20.669L154.145 27.8503Z" fill="#878787" mask="url(#path-6-inside-3_299_2)"/>
<mask id="path-8-inside-4_299_2" fill="white">
<path d="M98.0876 23.2185C102.351 23.2185 106.199 24.9962 108.931 27.8503L108.936 27.8464L129.647 48.5574L108.936 69.2683L108.934 69.2664C106.215 72.0062 102.446 73.7037 98.281 73.7039C89.9907 73.7039 83.2693 66.9827 83.2693 58.6921C83.2694 54.789 84.7598 51.2339 87.2019 48.5642C84.6457 45.8726 83.0769 42.2342 83.0769 38.2292C83.0769 29.939 89.7974 23.2186 98.0876 23.2185Z"/>
</mask>
<path d="M98.0876 23.2185L98.0876 12.8339L98.0875 12.8339L98.0876 23.2185ZM108.931 27.8503L101.43 35.0319L108 41.894L115.419 35.9594L108.931 27.8503ZM108.936 27.8464L116.279 20.5034L109.707 13.9311L102.449 19.7374L108.936 27.8464ZM129.647 48.5574L136.99 55.9004L144.333 48.5574L136.99 41.2143L129.647 48.5574ZM108.936 69.2683L101.593 76.6113L108.936 83.9544L116.279 76.6113L108.936 69.2683ZM108.934 69.2664L116.277 61.9233L108.907 54.5528L101.564 61.9509L108.934 69.2664ZM98.281 73.7039L98.281 84.0885L98.2813 84.0885L98.281 73.7039ZM83.2693 58.6921L72.8847 58.6919V58.6921H83.2693ZM87.2019 48.5642L94.8644 55.5733L101.397 48.4315L94.732 41.4131L87.2019 48.5642ZM83.0769 38.2292L72.6923 38.2292V38.2292H83.0769ZM98.0876 23.2185V33.6031C99.402 33.6031 100.575 34.1381 101.43 35.0319L108.931 27.8503L116.432 20.6688C111.823 15.8543 105.3 12.8339 98.0876 12.8339V23.2185ZM108.931 27.8503L115.419 35.9594L115.423 35.9555L108.936 27.8464L102.449 19.7374L102.444 19.7413L108.931 27.8503ZM108.936 27.8464L101.593 35.1895L122.304 55.9004L129.647 48.5574L136.99 41.2143L116.279 20.5034L108.936 27.8464ZM129.647 48.5574L122.304 41.2143L101.593 61.9253L108.936 69.2683L116.279 76.6113L136.99 55.9004L129.647 48.5574ZM108.936 69.2683L116.279 61.9253L116.277 61.9233L108.934 69.2664L101.591 76.6094L101.593 76.6113L108.936 69.2683ZM108.934 69.2664L101.564 61.9509C100.713 62.8084 99.5652 63.3192 98.2807 63.3192L98.281 73.7039L98.2813 84.0885C105.327 84.0883 111.717 81.2041 116.305 76.5819L108.934 69.2664ZM98.281 73.7039V63.3192C95.7258 63.3192 93.6539 61.2473 93.6539 58.6921H83.2693H72.8847C72.8847 72.7181 84.2555 84.0885 98.281 84.0885V73.7039ZM83.2693 58.6921L93.6539 58.6924C93.6539 57.4849 94.1037 56.4049 94.8644 55.5733L87.2019 48.5642L79.5395 41.5551C75.416 46.063 72.8849 52.0931 72.8847 58.6919L83.2693 58.6921ZM87.2019 48.5642L94.732 41.4131C93.9346 40.5734 93.4615 39.4673 93.4615 38.2292H83.0769H72.6923C72.6923 45.0012 75.3569 51.1717 79.6718 55.7153L87.2019 48.5642ZM83.0769 38.2292L93.4615 38.2293C93.4615 35.6744 95.5326 33.6032 98.0878 33.6031L98.0876 23.2185L98.0875 12.8339C84.0623 12.8341 72.6923 24.2035 72.6923 38.2292L83.0769 38.2292Z" fill="#878787" mask="url(#path-8-inside-4_299_2)"/>
</svg>
