<svg width="26" height="22" viewBox="0 0 26 22" fill="none" xmlns="http://www.w3.org/2000/svg">
<path fill-rule="evenodd" clip-rule="evenodd" d="M2 22C1.45 22 0.979167 21.8042 0.5875 21.4125C0.195833 21.0208 0 20.55 0 20V17H20V20C20 20.55 19.8042 21.0208 19.4125 21.4125C19.0208 21.8042 18.55 22 18 22H2ZM2 19V20H18V19H2ZM10 14.5C9.4 14.5 8.925 14.6667 8.575 15C8.225 15.3333 7.58333 15.5 6.65 15.5C5.71667 15.5 5.08333 15.3333 4.75 15C4.41667 14.6667 3.95 14.5 3.35 14.5C2.75 14.5 2.275 14.6667 1.925 15C1.575 15.3333 0.933333 15.5 0 15.5V13.5C0.6 13.5 1.075 13.3333 1.425 13C1.775 12.6667 2.41667 12.5 3.35 12.5C4.28333 12.5 4.91667 12.6667 5.25 13C5.58333 13.3333 6.05 13.5 6.65 13.5C7.25 13.5 7.725 13.3333 8.075 13C8.425 12.6667 9.06667 12.5 10 12.5C10.9333 12.5 11.575 12.6667 11.925 13C12.275 13.3333 12.75 13.5 13.35 13.5C13.6964 13.5 13.9984 13.4444 14.2559 13.3333C14.2559 13.3333 14.25 13.6207 14.5 14C14.75 14.3793 15.3 15 15.3 15C14.9333 15.3333 14.2833 15.5 13.35 15.5C12.4167 15.5 11.775 15.3333 11.425 15C11.075 14.6667 10.6 14.5 10 14.5ZM0 11V10C0 8.08333 0.904167 6.60417 2.7125 5.5625C4.52083 4.52083 6.95 4 10 4C10.4512 4 10.8889 4.0114 11.3129 4.0342C11.2086 4.18947 11 4.6 11 5C11 5.4 11.057 5.85015 11.0855 6.02522C10.7346 6.00841 10.3728 6 10 6C7.93333 6 6.20417 6.25833 4.8125 6.775C3.42083 7.29167 2.53333 8.03333 2.15 9H11.2776L11.5 10L12 11H0Z" fill="white"/>
<mask id="path-2-inside-1_94_3134" fill="white">
<path d="M21.9783 10.2646L21.9763 10.2656C22.389 10.6604 22.6472 11.2159 22.6472 11.832C22.6471 13.0294 21.6756 14 20.4783 14C19.899 13.9999 19.374 13.7715 18.9851 13.4014C18.5995 13.7546 18.0874 13.9725 17.5232 13.9727C16.3257 13.9727 15.3542 13.0012 15.3542 11.8037C15.3543 11.2021 15.5992 10.6574 15.9949 10.2646L18.9871 7.27344L21.9783 10.2646Z"/>
</mask>
<path d="M21.9783 10.2646L22.6491 11.6063L24.5105 10.6756L23.0389 9.20399L21.9783 10.2646ZM21.9763 10.2656L21.3055 8.92398L19.3998 9.87681L20.9395 11.3496L21.9763 10.2656ZM22.6472 11.832L24.1472 11.8322V11.832H22.6472ZM20.4783 14L20.478 15.5H20.4783V14ZM18.9851 13.4014L20.0193 12.3149L19.0047 11.3492L17.9719 12.2953L18.9851 13.4014ZM17.5232 13.9727V15.4727H17.5235L17.5232 13.9727ZM15.3542 11.8037L13.8542 11.8035V11.8037H15.3542ZM15.9949 10.2646L17.0516 11.3293L17.0554 11.3255L15.9949 10.2646ZM18.9871 7.27344L20.0477 6.21278L18.9872 5.15229L17.9266 6.2126L18.9871 7.27344ZM21.9783 10.2646L21.3075 8.92301L21.3055 8.92398L21.9763 10.2656L22.6471 11.6073L22.6491 11.6063L21.9783 10.2646ZM21.9763 10.2656L20.9395 11.3496C21.0705 11.4749 21.1472 11.6445 21.1472 11.832H22.6472H24.1472C24.1472 10.7873 23.7075 9.84585 23.0132 9.18169L21.9763 10.2656ZM22.6472 11.832L21.1472 11.8319C21.1472 12.2002 20.8479 12.5 20.4783 12.5V14V15.5C22.5034 15.5 24.147 13.8585 24.1472 11.8322L22.6472 11.832ZM20.4783 14L20.4785 12.5C20.3023 12.5 20.1427 12.4323 20.0193 12.3149L18.9851 13.4014L17.9509 14.4879C18.6053 15.1107 19.4958 15.4998 20.478 15.5L20.4783 14ZM18.9851 13.4014L17.9719 12.2953C17.8477 12.4091 17.6921 12.4726 17.5229 12.4727L17.5232 13.9727L17.5235 15.4727C18.4827 15.4725 19.3512 15.1002 19.9983 14.5075L18.9851 13.4014ZM17.5232 13.9727V12.4727C17.1541 12.4727 16.8542 12.1728 16.8542 11.8037H15.3542H13.8542C13.8542 13.8296 15.4973 15.4727 17.5232 15.4727V13.9727ZM15.3542 11.8037L16.8542 11.8039C16.8543 11.6175 16.9284 11.4515 17.0516 11.3292L15.9949 10.2646L14.9382 9.20005C14.27 9.8633 13.8544 10.7868 13.8542 11.8035L15.3542 11.8037ZM15.9949 10.2646L17.0554 11.3255L20.0475 8.33427L18.9871 7.27344L17.9266 6.2126L14.9344 9.20382L15.9949 10.2646ZM18.9871 7.27344L17.9264 8.3341L20.9176 11.3253L21.9783 10.2646L23.0389 9.20399L20.0477 6.21278L18.9871 7.27344Z" fill="white" mask="url(#path-2-inside-1_94_3134)"/>
<mask id="path-4-inside-2_94_3134" fill="white">
<path d="M20.4783 0C21.6756 0 22.6471 0.970608 22.6472 2.16797C22.6472 2.78388 22.3887 3.33868 21.9763 3.7334L21.9783 3.73535L18.9871 6.72656L15.9949 3.73438C15.5995 3.34165 15.3543 2.79759 15.3542 2.19629C15.3542 0.998799 16.3257 0.0273438 17.5232 0.0273438C18.0871 0.0274586 18.5995 0.244674 18.9851 0.597656C19.3739 0.227794 19.8993 8.94798e-05 20.4783 0Z"/>
</mask>
<path d="M20.4783 0V-1.5H20.478L20.4783 0ZM22.6472 2.16797H24.1472V2.16778L22.6472 2.16797ZM21.9763 3.7334L20.9391 2.64979L19.8315 3.70993L20.9157 4.79406L21.9763 3.7334ZM21.9783 3.73535L23.0389 4.79601L24.0996 3.73535L23.0389 2.67469L21.9783 3.73535ZM18.9871 6.72656L17.9264 7.78722L18.9871 8.84788L20.0477 7.78722L18.9871 6.72656ZM15.9949 3.73438L17.0555 2.67371L17.0519 2.67012L15.9949 3.73438ZM15.3542 2.19629H13.8542V2.19647L15.3542 2.19629ZM17.5232 0.0273438L17.5235 -1.47266H17.5232V0.0273438ZM18.9851 0.597656L17.9723 1.70407L19.0047 2.64921L20.0189 1.68449L18.9851 0.597656ZM20.4783 0V1.5C20.8479 1.5 21.1472 1.79978 21.1472 2.16816L22.6472 2.16797L24.1472 2.16778C24.147 0.141439 22.5034 -1.5 20.4783 -1.5V0ZM22.6472 2.16797H21.1472C21.1472 2.35426 21.071 2.52359 20.9391 2.64979L21.9763 3.7334L23.0135 4.81701C23.7064 4.15377 24.1472 3.2135 24.1472 2.16797H22.6472ZM21.9763 3.7334L20.9157 4.79406L20.9176 4.79601L21.9783 3.73535L23.0389 2.67469L23.037 2.67274L21.9763 3.7334ZM21.9783 3.73535L20.9176 2.67469L17.9264 5.6659L18.9871 6.72656L20.0477 7.78722L23.0389 4.79601L21.9783 3.73535ZM18.9871 6.72656L20.0477 5.6659L17.0555 2.67371L15.9949 3.73438L14.9342 4.79504L17.9264 7.78722L18.9871 6.72656ZM15.9949 3.73438L17.0519 2.67012C16.9279 2.54698 16.8543 2.38122 16.8542 2.19611L15.3542 2.19629L13.8542 2.19647C13.8544 3.21397 14.271 4.13632 14.9378 4.79863L15.9949 3.73438ZM15.3542 2.19629H16.8542C16.8542 1.82723 17.1541 1.52734 17.5232 1.52734V0.0273438V-1.47266C15.4973 -1.47266 13.8542 0.170372 13.8542 2.19629H15.3542ZM17.5232 0.0273438L17.5229 1.52734C17.6933 1.52738 17.849 1.59127 17.9723 1.70407L18.9851 0.597656L19.9979 -0.508761C19.35 -1.10192 18.481 -1.47246 17.5235 -1.47266L17.5232 0.0273438ZM18.9851 0.597656L20.0189 1.68449C20.1414 1.56801 20.3011 1.50003 20.4785 1.5L20.4783 0L20.478 -1.5C19.4975 -1.49985 18.6065 -1.11242 17.9513 -0.489182L18.9851 0.597656Z" fill="white" mask="url(#path-4-inside-2_94_3134)"/>
<mask id="path-6-inside-3_94_3134" fill="white">
<path d="M23.832 3.35352C25.0293 3.35369 26 4.32507 26 5.52246C25.9999 6.10167 25.7715 6.62676 25.4014 7.01562C25.7546 7.40131 25.9726 7.91336 25.9727 8.47754C25.9727 9.67506 25.0012 10.6465 23.8037 10.6465C23.2017 10.6464 22.6575 10.4001 22.2646 10.0039V10.0049L19.2734 7.01367L22.2646 4.02246L22.2656 4.02344C22.6603 3.61105 23.2161 3.35352 23.832 3.35352Z"/>
</mask>
<path d="M23.832 3.35352L23.8323 1.85352H23.832V3.35352ZM26 5.52246L27.5 5.52277V5.52246H26ZM25.4014 7.01562L24.3149 5.98146L23.3493 6.99589L24.2952 8.02871L25.4014 7.01562ZM25.9727 8.47754H27.4727V8.47737L25.9727 8.47754ZM23.8037 10.6465L23.8036 12.1465H23.8037V10.6465ZM22.2646 10.0039L23.3298 8.94778L20.7646 6.36061V10.0039H22.2646ZM22.2646 10.0049L21.204 11.0655L23.7646 13.6262V10.0049H22.2646ZM19.2734 7.01367L18.2128 5.95301L17.1521 7.01367L18.2128 8.07433L19.2734 7.01367ZM22.2646 4.02246L23.3253 2.9618L22.2646 1.90114L21.204 2.9618L22.2646 4.02246ZM22.2656 4.02344L21.205 5.0841L22.2891 6.16823L23.3492 5.06063L22.2656 4.02344ZM23.832 3.35352L23.8318 4.85352C24.2002 4.85357 24.5 5.15286 24.5 5.52246H26H27.5C27.5 3.49729 25.8585 1.85382 23.8323 1.85352L23.832 3.35352ZM26 5.52246L24.5 5.52216C24.5 5.69848 24.4323 5.8581 24.3149 5.98146L25.4014 7.01562L26.4879 8.04979C27.1107 7.39542 27.4998 6.50485 27.5 5.52277L26 5.52246ZM25.4014 7.01562L24.2952 8.02871C24.4092 8.15319 24.4726 8.30882 24.4727 8.47771L25.9727 8.47754L27.4727 8.47737C27.4725 7.5179 27.1 6.64943 26.5076 6.00254L25.4014 7.01562ZM25.9727 8.47754H24.4727C24.4727 8.84661 24.1728 9.14648 23.8037 9.14648V10.6465V12.1465C25.8296 12.1465 27.4727 10.5035 27.4727 8.47754H25.9727ZM23.8037 10.6465L23.8039 9.14648C23.6199 9.14647 23.454 9.07302 23.3298 8.94778L22.2646 10.0039L21.1995 11.06C21.861 11.7272 22.7835 12.1464 23.8036 12.1465L23.8037 10.6465ZM22.2646 10.0039H20.7646V10.0049H22.2646H23.7646V10.0039H22.2646ZM22.2646 10.0049L23.3253 8.94422L20.3341 5.95301L19.2734 7.01367L18.2128 8.07433L21.204 11.0655L22.2646 10.0049ZM19.2734 7.01367L20.3341 8.07433L23.3253 5.08312L22.2646 4.02246L21.204 2.9618L18.2128 5.95301L19.2734 7.01367ZM22.2646 4.02246L21.204 5.08312L21.205 5.0841L22.2656 4.02344L23.3263 2.96278L23.3253 2.9618L22.2646 4.02246ZM22.2656 4.02344L23.3492 5.06063C23.4737 4.93058 23.6434 4.85352 23.832 4.85352V3.35352V1.85352C22.7889 1.85352 21.847 2.29152 21.182 2.98624L22.2656 4.02344Z" fill="white" mask="url(#path-6-inside-3_94_3134)"/>
<mask id="path-8-inside-4_94_3134" fill="white">
<path d="M14.168 3.35352C14.7837 3.35352 15.3387 3.61129 15.7334 4.02344L15.7354 4.02246L18.7266 7.01367L15.7354 10.0049L15.7344 10.0039C15.3416 10.3998 14.798 10.6464 14.1963 10.6465C12.9988 10.6465 12.0273 9.67506 12.0273 8.47754C12.0274 7.91308 12.2451 7.4004 12.5986 7.01465C12.2286 6.62572 12 6.10066 12 5.52148C12.0002 4.32427 12.9707 3.35367 14.168 3.35352Z"/>
</mask>
<path d="M14.168 3.35352V1.85352H14.1678L14.168 3.35352ZM15.7334 4.02344L14.65 5.06091L15.415 5.85969L16.4042 5.36508L15.7334 4.02344ZM15.7354 4.02246L16.796 2.9618L16.0315 2.19732L15.0645 2.68082L15.7354 4.02246ZM18.7266 7.01367L19.7872 8.07433L20.8479 7.01367L19.7872 5.95301L18.7266 7.01367ZM15.7354 10.0049L14.6747 11.0655L15.7354 12.1262L16.796 11.0655L15.7354 10.0049ZM15.7344 10.0039L16.795 8.94325L15.7302 7.87837L14.6695 8.94746L15.7344 10.0039ZM14.1963 10.6465V12.1465H14.1965L14.1963 10.6465ZM12.0273 8.47754L10.5273 8.47737V8.47754H12.0273ZM12.5986 7.01465L13.7045 8.02811L14.6508 6.99554L13.6854 5.98078L12.5986 7.01465ZM12 5.52148L10.5 5.5212V5.52148H12ZM14.168 3.35352V4.85352C14.3555 4.85352 14.5248 4.93009 14.65 5.06091L15.7334 4.02344L16.8167 2.98596C16.1526 2.29248 15.2119 1.85352 14.168 1.85352V3.35352ZM15.7334 4.02344L16.4042 5.36508L16.4062 5.3641L15.7354 4.02246L15.0645 2.68082L15.0626 2.6818L15.7334 4.02344ZM15.7354 4.02246L14.6747 5.08312L17.6659 8.07433L18.7266 7.01367L19.7872 5.95301L16.796 2.9618L15.7354 4.02246ZM18.7266 7.01367L17.6659 5.95301L14.6747 8.94422L15.7354 10.0049L16.796 11.0655L19.7872 8.07433L18.7266 7.01367ZM15.7354 10.0049L16.796 8.94422L16.795 8.94325L15.7344 10.0039L14.6737 11.0646L14.6747 11.0655L15.7354 10.0049ZM15.7344 10.0039L14.6695 8.94746C14.5445 9.07345 14.3789 9.14646 14.1961 9.14648L14.1963 10.6465L14.1965 12.1465C15.2172 12.1464 16.1386 11.7262 16.7992 11.0604L15.7344 10.0039ZM14.1963 10.6465V9.14648C13.8272 9.14648 13.5273 8.84662 13.5273 8.47754H12.0273H10.5273C10.5273 10.5035 12.1704 12.1465 14.1963 12.1465V10.6465ZM12.0273 8.47754L13.5273 8.47771C13.5274 8.3075 13.5912 8.15166 13.7045 8.02811L12.5986 7.01465L11.4928 6.00119C10.899 6.64914 10.5275 7.51867 10.5273 8.47737L12.0273 8.47754ZM12.5986 7.01465L13.6854 5.98078C13.5675 5.85684 13.5 5.69706 13.5 5.52148H12H10.5C10.5 6.50425 10.8898 7.39461 11.5118 8.04852L12.5986 7.01465ZM12 5.52148L13.5 5.52176C13.5001 5.15267 13.7993 4.85356 14.1682 4.85352L14.168 3.35352L14.1678 1.85352C12.1422 1.85377 10.5004 3.49587 10.5 5.5212L12 5.52148Z" fill="white" mask="url(#path-8-inside-4_94_3134)"/>
</svg>
