<svg width="126" height="108" viewBox="0 0 126 108" fill="none" xmlns="http://www.w3.org/2000/svg"><path fill-rule="evenodd" clip-rule="evenodd" d="M9.692 107.308q-3.998 0-6.845-2.847T0 97.615V83.077h96.923v14.538q0 3.998-2.847 6.846t-6.845 2.847zm0-14.539v4.846h77.539V92.77zm38.77-21.808q-4.362 0-6.906 2.424t-9.33 2.423q-6.783 0-9.207-2.423-2.423-2.424-6.784-2.424-4.362 0-6.906 2.424T0 75.808v-9.693q4.362 0 6.906-2.423t9.329-2.423 9.207 2.423 6.785 2.423 6.906-2.423 9.328-2.423 9.33 2.423 6.905 2.423q2.518 0 4.39-.807s-.028 1.392 1.183 3.23 3.877 4.847 3.877 4.847q-2.665 2.423-9.45 2.423t-9.329-2.423-6.905-2.424M0 54v-4.846Q0 35.22 13.145 27.649q13.146-7.572 35.317-7.572 3.28 0 6.362.166c-.505.752-1.516 2.742-1.516 4.68 0 1.939.276 4.12.414 4.968q-2.55-.122-5.26-.122-15.024 0-25.14 3.756T10.42 44.308h44.234l1.078 4.846L58.154 54z" fill="#F4BD26"/><mask id="a" fill="#fff"><path d="m106.51 50.438-.004.003a10.48 10.48 0 0 1 3.244 7.59c0 5.803-4.705 10.508-10.508 10.508a10.47 10.47 0 0 1-7.233-2.89 10.47 10.47 0 0 1-7.091 2.755c-5.803 0-10.508-4.705-10.508-10.507 0-2.916 1.188-5.555 3.105-7.459L92.012 35.94z"/></mask><path d="m106.51 50.438 4.542 5.676 6.342-5.074-5.743-5.743zm-.004.003-4.541-5.676-6.483 5.187 5.997 5.74zm3.244 7.59h7.269zM99.242 68.54v7.27zm-7.233-2.89 5.007-5.271L92.1 55.71l-5 4.576zm-7.091 2.755v7.27zM74.41 57.897h-7.27zm3.105-7.459 5.121 5.16 5.179-5.14-5.16-5.16zm0 0-5.14-5.14-5.14 5.14 5.14 5.14zM92.012 35.94l5.14-5.14-5.14-5.14-5.14 5.14zm14.497 14.498-4.541-5.677-.004.004 4.541 5.676 4.541 5.677.005-.004zm-.004.003-5.027 5.252a3.2 3.2 0 0 1 1.002 2.338h14.538a17.74 17.74 0 0 0-5.487-12.84zm3.244 7.59h-7.269a3.24 3.24 0 0 1-3.24 3.239v14.538c9.819 0 17.778-7.96 17.778-17.777zM99.242 68.54v-7.27c-.86 0-1.634-.328-2.226-.891l-5.007 5.27-5.006 5.271a17.74 17.74 0 0 0 12.239 4.89zm-7.233-2.89-4.907-5.363a3.2 3.2 0 0 1-2.184.85v14.538c4.623 0 8.845-1.776 12-4.663zm-7.091 2.755v-7.269a3.24 3.24 0 0 1-3.239-3.239H67.141c0 9.818 7.959 17.777 17.777 17.778zM74.41 57.897h7.27c0-.901.357-1.705.956-2.3l-5.12-5.159-5.122-5.159a17.75 17.75 0 0 0-5.253 12.618zm3.105-7.459 5.14-5.14zl-5.14 5.14zm0 0 5.14 5.14L97.153 41.08l-5.14-5.14-5.14-5.14-14.499 14.497zM92.012 35.94l-5.14 5.14 14.497 14.498 5.14-5.14 5.141-5.14-14.498-14.499z" fill="#F4BD26" mask="url(#a)"/><mask id="b" fill="#fff"><path d="M99.242.692c5.803 0 10.508 4.705 10.508 10.508 0 2.985-1.247 5.675-3.245 7.588l.005.006-14.498 14.498-14.498-14.498.002-.003a10.47 10.47 0 0 1-3.106-7.456C74.41 5.532 79.115.827 84.918.827a10.47 10.47 0 0 1 7.09 2.754A10.47 10.47 0 0 1 99.242.692"/></mask><path d="M99.242.692v-7.269zM109.75 11.2h7.269zm-3.245 7.588-5.027-5.25-5.367 5.137 5.254 5.253zm.005.006 5.141 5.14 5.14-5.14-5.14-5.14zM92.012 33.292l-5.14 5.14 5.14 5.14 5.14-5.14zM77.515 18.794l-6.048-4.032-3.306 4.958 4.214 4.214zm.002-.003 6.049 4.032 3.318-4.977-4.245-4.214zm-3.106-7.456h-7.27zM84.918.827v-7.27zm7.09 2.754-4.906 5.363 4.999 4.574 4.913-4.666zM99.242.692v7.27a3.24 3.24 0 0 1 3.239 3.238h14.538c0-9.818-7.959-17.777-17.777-17.777zM109.75 11.2h-7.269c0 .914-.373 1.734-1.003 2.337l5.027 5.251 5.027 5.251a17.74 17.74 0 0 0 5.487-12.839zm-3.245 7.588-5.14 5.14.005.006 5.14-5.14 5.141-5.14-.006-.006zm.005.006-5.14-5.14-14.498 14.498 5.14 5.14 5.14 5.14 14.499-14.498zM92.012 33.292l5.14-5.14-14.498-14.498-5.14 5.14-5.14 5.14 14.498 14.498zM77.515 18.794l6.049 4.032.002-.003-6.049-4.032-6.048-4.032-.002.003zm.002-.003 5.122-5.159a3.2 3.2 0 0 1-.959-2.297H67.141a17.74 17.74 0 0 0 5.254 12.615zm-3.106-7.456h7.27a3.24 3.24 0 0 1 3.238-3.239V-6.443C75.1-6.441 67.14 1.518 67.14 11.336zM84.918.827v7.27a3.2 3.2 0 0 1 2.183.847l4.907-5.363 4.908-5.363a17.74 17.74 0 0 0-11.998-4.66zm7.09 2.754 5.007 5.27a3.2 3.2 0 0 1 2.227-.89V-6.576c-4.743 0-9.06 1.868-12.24 4.887z" fill="#F4BD26" mask="url(#b)"/><mask id="c" fill="#fff"><path d="M115.493 16.945c5.803 0 10.508 4.704 10.508 10.508 0 2.803-1.101 5.348-2.891 7.232a10.47 10.47 0 0 1 2.756 7.092c0 5.803-4.705 10.508-10.508 10.508a10.48 10.48 0 0 1-7.458-3.107l-.001.002-14.498-14.498L107.9 20.185l.004.004a10.48 10.48 0 0 1 7.59-3.244"/></mask><path d="M115.493 16.945v-7.27zm10.508 10.508h7.269zm-2.891 7.232-5.271-5.006-4.667 4.915 4.576 5zm2.756 7.092h7.269zm-10.508 10.508v7.269zm-7.458-3.107 5.16-5.12-7.133-7.187-4.529 9.056zm-.001.002-5.14 5.14 7.132 7.132 4.51-9.02zM93.401 34.682l-5.14-5.14-5.14 5.14 5.14 5.14zM107.9 20.185l5.14-5.14-5.14-5.14-5.14 5.14zm.004.004-5.14 5.14 5.253 5.253 5.138-5.366zm7.59-3.244v7.27a3.24 3.24 0 0 1 3.239 3.238h14.538c0-9.818-7.96-17.777-17.777-17.777zm10.508 10.508h-7.269a3.2 3.2 0 0 1-.893 2.226l5.271 5.006 5.271 5.006a17.74 17.74 0 0 0 4.889-12.238zm-2.891 7.232-5.362 4.908a3.2 3.2 0 0 1 .849 2.184h14.538c0-4.623-1.775-8.845-4.663-12zm2.756 7.092h-7.269a3.24 3.24 0 0 1-3.239 3.238v14.539c9.817 0 17.777-7.959 17.777-17.777zm-10.508 10.508v-7.27a3.2 3.2 0 0 1-2.298-.957l-5.16 5.12-5.159 5.12a17.74 17.74 0 0 0 12.617 5.256zm-7.458-3.107-6.502-3.25-.001.001 6.502 3.251 6.502 3.251.001-.002zm-.001.002 5.14-5.14-14.498-14.498-5.14 5.14-5.14 5.14L102.76 54.32zM93.401 34.682l5.14 5.14 14.498-14.497-5.14-5.14-5.14-5.14-14.498 14.497zM107.9 20.185l-5.14 5.14.004.004 5.14-5.14 5.14-5.14-.004-.004zm.004.004 5.251 5.027a3.2 3.2 0 0 1 2.339-1.002V9.676a17.75 17.75 0 0 0-12.841 5.486z" fill="#F4BD26" mask="url(#c)"/><mask id="d" fill="#fff"><path d="M68.662 16.945c2.984 0 5.676 1.246 7.588 3.244l.005-.004 14.498 14.497L76.255 49.18l-.002-.002a10.47 10.47 0 0 1-7.457 3.107c-5.803 0-10.507-4.705-10.507-10.508a10.47 10.47 0 0 1 2.753-7.092 10.47 10.47 0 0 1-2.888-7.232c0-5.803 4.704-10.508 10.508-10.508"/></mask><path d="M68.662 16.945v-7.27zm7.588 3.244L71 25.216l4.599 4.804 5.192-4.155zm.005-.004 5.14-5.14-4.6-4.6-5.08 4.064zm14.498 14.497 5.14 5.14 5.141-5.14-5.14-5.14zM76.255 49.18l-5.14 5.14 5.14 5.14 5.14-5.14zm-.002-.002 5.14-5.14-5.159-5.16-5.14 5.18zm-7.457 3.107v7.269zM58.29 41.777h-7.27zm2.753-7.092 5.363 4.908 4.575-5-4.666-4.913zm-2.888-7.232h-7.27zm10.508-10.508v7.27c.915 0 1.736.372 2.338 1.001l5.25-5.027 5.251-5.027a17.74 17.74 0 0 0-12.84-5.486zm7.588 3.244 4.541 5.676.005-.004-4.54-5.676-4.542-5.676-.005.004zm.005-.004-5.14 5.14 14.499 14.497 5.14-5.14 5.14-5.14-14.499-14.497zm14.498 14.497-5.14-5.14L71.115 44.04l5.14 5.14 5.14 5.14 14.499-14.498zM76.255 49.18l5.14-5.14-.001-.002-5.14 5.14-5.14 5.14.001.002zm-.002-.002-5.159-5.12c-.596.6-1.4.957-2.298.957v14.539c4.934 0 9.406-2.02 12.617-5.255zm-7.457 3.107v-7.27a3.24 3.24 0 0 1-3.238-3.238H51.019c0 9.818 7.96 17.777 17.777 17.777zM58.29 41.777h7.269c0-.847.315-1.603.847-2.184l-5.363-4.908-5.362-4.908a17.74 17.74 0 0 0-4.66 12zm2.753-7.092 5.272-5.005a3.2 3.2 0 0 1-.891-2.227H50.885c0 4.744 1.87 9.06 4.886 12.237zm-2.888-7.232h7.269a3.24 3.24 0 0 1 3.239-3.239V9.676c-9.818 0-17.777 7.959-17.777 17.777z" fill="#F4BD26" mask="url(#d)"/></svg>
