<svg width="18" height="17" viewBox="0 0 18 17" fill="none" xmlns="http://www.w3.org/2000/svg">
<path d="M1.8 17C1.305 17 0.88125 16.8248 0.52875 16.4743C0.17625 16.1239 0 15.7026 0 15.2105V5.36842C0 4.87632 0.17625 4.45504 0.52875 4.10461C0.88125 3.75417 1.305 3.57895 1.8 3.57895H5.4V1.78947C5.4 1.29737 5.57625 0.876096 5.92875 0.525658C6.28125 0.175219 6.705 0 7.2 0H10.8C11.295 0 11.7188 0.175219 12.0713 0.525658C12.4238 0.876096 12.6 1.29737 12.6 1.78947V3.57895H16.2C16.695 3.57895 17.1187 3.75417 17.4713 4.10461C17.8238 4.45504 18 4.87632 18 5.36842V15.2105C18 15.7026 17.8238 16.1239 17.4713 16.4743C17.1187 16.8248 16.695 17 16.2 17H1.8ZM1.8 15.2105H5.4V12.5263C5.01 12.4368 4.6875 12.2318 4.4325 11.9112C4.1775 11.5906 4.05 11.2215 4.05 10.8039V7.1579H4.95V10.5355H5.625V7.1579H6.525V10.5355H7.2V7.1579H8.1V10.8039C8.1 11.2215 7.9725 11.5906 7.7175 11.9112C7.4625 12.2318 7.14 12.4368 6.75 12.5263V15.2105H11.25V13.2421C10.86 13.0184 10.5375 12.6419 10.2825 12.1125C10.0275 11.5831 9.9 10.9754 9.9 10.2895C9.9 9.42456 10.095 8.6864 10.485 8.075C10.875 7.4636 11.355 7.1579 11.925 7.1579C12.48 7.1579 12.9563 7.4636 13.3538 8.075C13.7513 8.6864 13.95 9.42456 13.95 10.2895C13.95 10.9904 13.8225 11.6055 13.5675 12.1349C13.3125 12.6643 12.99 13.0333 12.6 13.2421V15.2105H16.2V5.36842H1.8V15.2105ZM7.2 3.57895H10.8V1.78947H7.2V3.57895Z" fill="#B1B1B2" fill-opacity="0.5"/>
</svg>
