<svg width="18" height="18" viewBox="0 0 18 18" fill="none" xmlns="http://www.w3.org/2000/svg">
<path d="M8.54883 0.571289C8.79105 0.571289 8.99435 0.653528 9.1582 0.817383C9.32199 0.98122 9.4043 1.18459 9.4043 1.42676C9.40422 1.6687 9.32181 1.87142 9.1582 2.03516C8.99435 2.19901 8.79105 2.28125 8.54883 2.28125C6.65392 2.28128 5.04017 2.94719 3.70801 4.2793C2.37588 5.61142 1.71005 7.22526 1.70996 9.12012C1.70996 11.015 2.37596 12.6288 3.70801 13.9609C5.04019 15.2931 6.65386 15.9599 8.54883 15.96C10.4438 15.96 12.0574 15.2931 13.3896 13.9609C14.7218 12.6287 15.3877 11.0151 15.3877 9.12012C15.3878 8.87817 15.4702 8.67545 15.6338 8.51172C15.7976 8.34786 16.0009 8.26562 16.2432 8.26562C16.4853 8.26566 16.6887 8.3479 16.8525 8.51172C17.0161 8.67543 17.0976 8.87825 17.0977 9.12012C17.0977 10.2885 16.8736 11.3935 16.4248 12.4336C15.976 13.4735 15.3633 14.3818 14.5869 15.1582C13.8104 15.9347 12.9051 16.5473 11.8721 16.9961C10.8391 17.4449 9.73136 17.6699 8.54883 17.6699C7.38053 17.6699 6.2764 17.4449 5.23633 16.9961C4.19631 16.5473 3.2882 15.9346 2.51172 15.1582C1.73524 14.3817 1.12166 13.4736 0.672852 12.4336C0.224031 11.3935 0 10.2885 0 9.12012C4.62179e-05 7.93765 0.224078 6.82977 0.672852 5.79688C1.12167 4.76389 1.7352 3.85953 2.51172 3.08301C3.28821 2.30655 4.19628 1.69391 5.23633 1.24512C6.27641 0.796313 7.38052 0.571305 8.54883 0.571289ZM8.54883 4.62012C8.67625 4.62012 8.78292 4.66385 8.86914 4.75C8.95535 4.83621 8.99898 4.94289 8.99902 5.07031C8.99902 5.19781 8.95539 5.30535 8.86914 5.3916C8.78297 5.47754 8.6761 5.52051 8.54883 5.52051C7.55144 5.52054 6.70217 5.87113 6.00098 6.57227C5.29981 7.27343 4.94931 8.12278 4.94922 9.12012C4.94922 10.1176 5.29973 10.9677 6.00098 11.6689C6.70215 12.37 7.5515 12.7207 8.54883 12.7207C9.54615 12.7207 10.3955 12.37 11.0967 11.6689C11.7979 10.9677 12.1494 10.1176 12.1494 9.12012C12.1495 8.99278 12.1922 8.88597 12.2783 8.7998C12.3645 8.71364 12.4713 8.67097 12.5986 8.6709C12.7261 8.6709 12.8337 8.71355 12.9199 8.7998C13.006 8.88595 13.0487 8.99285 13.0488 9.12012C13.0488 9.73512 12.9306 10.3168 12.6943 10.8643C12.4581 11.4117 12.1362 11.8901 11.7275 12.2988C11.3188 12.7076 10.8416 13.0304 10.2979 13.2666C9.75427 13.5027 9.17111 13.6201 8.54883 13.6201C7.93409 13.6201 7.35296 13.5027 6.80566 13.2666C6.25827 13.0304 5.77979 12.7075 5.37109 12.2988C4.96235 11.8901 4.63957 11.4118 4.40332 10.8643C4.16707 10.3168 4.04883 9.73512 4.04883 9.12012C4.04888 8.49776 4.16712 7.91474 4.40332 7.37109C4.63957 6.82735 4.96235 6.35113 5.37109 5.94238C5.77982 5.53369 6.25822 5.21084 6.80566 4.97461C7.35299 4.73851 7.93405 4.62013 8.54883 4.62012ZM13.374 2.58105L14.8311 3.87793L17.5137 4.59668L10.6641 7.09277L12.3496 0L13.374 2.58105Z" fill="#B1B1B2" fill-opacity="0.5"/>
</svg>
