<svg width="18" height="168" viewBox="0 0 18 168" fill="none" xmlns="http://www.w3.org/2000/svg">
<path d="M0.778864 0.353027V167.296C1.15828 156.672 12.0032 151.803 17.3783 150.696V146.902C15.3231 146.428 11.2128 144.625 11.2128 141.211C11.2128 137.796 15.3231 135.361 17.3783 134.571V130.777C15.3231 130.303 11.2128 128.311 11.2128 124.137C11.2128 119.964 15.3231 117.972 17.3783 117.497V114.177C15.3231 114.019 11.2128 112.66 11.2128 108.486C11.2128 104.313 15.3231 102.005 17.3783 101.372V97.5781C15.3231 97.7361 11.2128 96.8192 11.2128 91.8868C11.2128 86.9544 15.3231 84.7728 17.3783 84.2985V80.9787C15.3231 80.8206 11.2128 79.461 11.2128 75.2874C11.2128 71.1139 15.3231 68.1734 17.3783 67.2249V64.8535C15.3231 64.2212 11.2128 62.0079 11.2128 58.2138C11.2128 54.4196 15.3231 52.5226 17.3783 52.0483V48.7284C15.3231 48.5703 11.2128 47.1159 11.2128 42.5629C11.2128 38.0099 15.3231 35.9232 17.3783 35.4489V32.129C15.3231 31.9709 11.2128 30.5165 11.2128 25.9635C11.2128 20.2723 18.3268 19.798 17.3783 18.3752C7.89289 17.6164 2.35976 6.04425 0.778864 0.353027Z" fill="#261D1D"/>
</svg>
