<svg width="18" height="168" viewBox="0 0 18 168" fill="none" xmlns="http://www.w3.org/2000/svg">
<path d="M17.221 0.353027V167.296C16.8416 156.672 5.99666 151.803 0.621619 150.696V146.902C2.67678 146.428 6.78711 144.625 6.78711 141.211C6.78711 137.796 2.67678 135.361 0.621619 134.571V130.777C2.67678 130.303 6.78711 128.311 6.78711 124.137C6.78711 119.964 2.67678 117.972 0.621619 117.497V114.177C2.67678 114.019 6.78711 112.66 6.78711 108.486C6.78711 104.313 2.67678 102.005 0.621619 101.372V97.5781C2.67678 97.7361 6.78711 96.8192 6.78711 91.8868C6.78711 86.9544 2.67678 84.7728 0.621619 84.2985V80.9787C2.67678 80.8206 6.78711 79.461 6.78711 75.2874C6.78711 71.1139 2.67678 68.1734 0.621619 67.2249V64.8535C2.67678 64.2212 6.78711 62.0079 6.78711 58.2138C6.78711 54.4196 2.67678 52.5226 0.621619 52.0483V48.7284C2.67678 48.5703 6.78711 47.1159 6.78711 42.5629C6.78711 38.0099 2.67678 35.9232 0.621619 35.4489V32.129C2.67678 31.9709 6.78711 30.5165 6.78711 25.9635C6.78711 20.2723 -0.326918 19.798 0.621619 18.3752C10.107 17.6164 15.6401 6.04425 17.221 0.353027Z" fill="#261D1D"/>
</svg>
